  0
SECTION
  2
BLOCKS
  0
ENDSEC
  0
SECTION
  2
ENTITIES
  0
LINE
  8
0
 10
12.7
 20
29.475
 11
-12.7
 21
29.475
  0
LINE
  8
0
 10
-12.7
 20
29.475
 11
-12.7
 21
4.075
  0
LINE
  8
0
 10
-12.7
 20
4.075
 11
12.7
 21
4.075
  0
LINE
  8
0
 10
12.7
 20
4.075
 11
12.7
 21
29.475
  0
LINE
  8
0
 10
-1.12999
 20
2
 11
-0.25
 21
2
  0
LINE
  8
0
 10
-0.25
 20
2
 11
-0.25
 21
1.875
  0
LINE
  8
0
 10
-0.25
 20
1.875
 11
0.25
 21
1.875
  0
LINE
  8
0
 10
0.25
 20
1.875
 11
0.25
 21
2
  0
LINE
  8
0
 10
0.25
 20
2
 11
1.12999
 21
2
  0
LINE
  8
0
 10
1.12999
 20
2
 11
1.12999
 21
1.875
  0
LINE
  8
0
 10
1.12999
 20
1.875
 11
1.62999
 21
1.875
  0
LINE
  8
0
 10
1.62999
 20
1.875
 11
1.62999
 21
2
  0
LINE
  8
0
 10
1.62999
 20
2
 11
2.29999
 21
2
  0
LINE
  8
0
 10
2.29999
 20
2
 11
2.29999
 21
2.47499
  0
LINE
  8
0
 10
2.29999
 20
2.47499
 11
2.42499
 21
2.47499
  0
LINE
  8
0
 10
2.42499
 20
2.47499
 11
2.42499
 21
2.97499
  0
LINE
  8
0
 10
2.42499
 20
2.97499
 11
2.29999
 21
2.97499
  0
LINE
  8
0
 10
2.29999
 20
2.97499
 11
2.29999
 21
3.45
  0
LINE
  8
0
 10
2.29999
 20
3.45
 11
1.62999
 21
3.45
  0
LINE
  8
0
 10
1.62999
 20
3.45
 11
1.62999
 21
3.575
  0
LINE
  8
0
 10
1.62999
 20
3.575
 11
1.12999
 21
3.575
  0
LINE
  8
0
 10
1.12999
 20
3.575
 11
1.12999
 21
3.45
  0
LINE
  8
0
 10
1.12999
 20
3.45
 11
0.25
 21
3.45
  0
LINE
  8
0
 10
0.25
 20
3.45
 11
0.25
 21
3.575
  0
LINE
  8
0
 10
0.25
 20
3.575
 11
-0.25
 21
3.575
  0
LINE
  8
0
 10
-0.25
 20
3.575
 11
-0.25
 21
3.45
  0
LINE
  8
0
 10
-0.25
 20
3.45
 11
-1.12999
 21
3.45
  0
LINE
  8
0
 10
-1.12999
 20
3.45
 11
-1.12999
 21
3.575
  0
LINE
  8
0
 10
-1.12999
 20
3.575
 11
-1.62999
 21
3.575
  0
LINE
  8
0
 10
-1.62999
 20
3.575
 11
-1.62999
 21
3.45
  0
LINE
  8
0
 10
-1.62999
 20
3.45
 11
-2.29999
 21
3.45
  0
LINE
  8
0
 10
-2.29999
 20
3.45
 11
-2.29999
 21
2.97499
  0
LINE
  8
0
 10
-2.29999
 20
2.97499
 11
-2.42499
 21
2.97499
  0
LINE
  8
0
 10
-2.42499
 20
2.97499
 11
-2.42499
 21
2.47499
  0
LINE
  8
0
 10
-2.42499
 20
2.47499
 11
-2.29999
 21
2.47499
  0
LINE
  8
0
 10
-2.29999
 20
2.47499
 11
-2.29999
 21
2
  0
LINE
  8
0
 10
-2.29999
 20
2
 11
-1.62999
 21
2
  0
LINE
  8
0
 10
-1.62999
 20
2
 11
-1.62999
 21
1.875
  0
LINE
  8
0
 10
-1.62999
 20
1.875
 11
-1.12999
 21
1.875
  0
LINE
  8
0
 10
-1.12999
 20
1.875
 11
-1.12999
 21
2
  0
LINE
  8
0
 10
-2.39069
 20
-1.3745
 11
2.39069
 21
-1.3745
  0
LINE
  8
0
 10
2.39069
 20
-1.3745
 11
2.42184
 21
-1.37056
  0
LINE
  8
0
 10
2.42184
 20
-1.37056
 11
2.45224
 21
-1.36276
  0
LINE
  8
0
 10
2.45224
 20
-1.36276
 11
2.48143
 21
-1.3512
  0
LINE
  8
0
 10
2.48143
 20
-1.3512
 11
2.50894
 21
-1.33607
  0
LINE
  8
0
 10
2.50894
 20
-1.33607
 11
2.53435
 21
-1.31763
  0
LINE
  8
0
 10
2.53435
 20
-1.31763
 11
2.55724
 21
-1.29613
  0
LINE
  8
0
 10
2.55724
 20
-1.29613
 11
2.57724
 21
-1.27194
  0
LINE
  8
0
 10
2.57724
 20
-1.27194
 11
2.59407
 21
-1.24544
  0
LINE
  8
0
 10
2.59407
 20
-1.24544
 11
2.60744
 21
-1.21703
  0
LINE
  8
0
 10
2.60744
 20
-1.21703
 11
2.61714
 21
-1.18716
  0
LINE
  8
0
 10
2.61714
 20
-1.18716
 11
2.62302
 21
-1.15633
  0
LINE
  8
0
 10
2.62302
 20
-1.15633
 11
2.625
 21
-1.125
  0
LINE
  8
0
 10
2.625
 20
-1.125
 11
2.625
 21
1.125
  0
LINE
  8
0
 10
2.625
 20
1.125
 11
2.62302
 21
1.15633
  0
LINE
  8
0
 10
2.62302
 20
1.15633
 11
2.61714
 21
1.18716
  0
LINE
  8
0
 10
2.61714
 20
1.18716
 11
2.60744
 21
1.21703
  0
LINE
  8
0
 10
2.60744
 20
1.21703
 11
2.59407
 21
1.24544
  0
LINE
  8
0
 10
2.59407
 20
1.24544
 11
2.57724
 21
1.27194
  0
LINE
  8
0
 10
2.57724
 20
1.27194
 11
2.55724
 21
1.29613
  0
LINE
  8
0
 10
2.55724
 20
1.29613
 11
2.53435
 21
1.31763
  0
LINE
  8
0
 10
2.53435
 20
1.31763
 11
2.50894
 21
1.33607
  0
LINE
  8
0
 10
2.50894
 20
1.33607
 11
2.48143
 21
1.3512
  0
LINE
  8
0
 10
2.48143
 20
1.3512
 11
2.45224
 21
1.36276
  0
LINE
  8
0
 10
2.45224
 20
1.36276
 11
2.42184
 21
1.37056
  0
LINE
  8
0
 10
2.42184
 20
1.37056
 11
2.375
 21
1.375
  0
LINE
  8
0
 10
2.375
 20
1.375
 11
-2.39069
 21
1.3745
  0
LINE
  8
0
 10
-2.39069
 20
1.3745
 11
-2.42184
 21
1.37056
  0
LINE
  8
0
 10
-2.42184
 20
1.37056
 11
-2.45224
 21
1.36276
  0
LINE
  8
0
 10
-2.45224
 20
1.36276
 11
-2.48143
 21
1.3512
  0
LINE
  8
0
 10
-2.48143
 20
1.3512
 11
-2.50894
 21
1.33607
  0
LINE
  8
0
 10
-2.50894
 20
1.33607
 11
-2.53435
 21
1.31763
  0
LINE
  8
0
 10
-2.53435
 20
1.31763
 11
-2.55724
 21
1.29613
  0
LINE
  8
0
 10
-2.55724
 20
1.29613
 11
-2.57724
 21
1.27194
  0
LINE
  8
0
 10
-2.57724
 20
1.27194
 11
-2.59407
 21
1.24544
  0
LINE
  8
0
 10
-2.59407
 20
1.24544
 11
-2.60744
 21
1.21703
  0
LINE
  8
0
 10
-2.60744
 20
1.21703
 11
-2.61714
 21
1.18716
  0
LINE
  8
0
 10
-2.61714
 20
1.18716
 11
-2.62302
 21
1.15633
  0
LINE
  8
0
 10
-2.62302
 20
1.15633
 11
-2.625
 21
1.125
  0
LINE
  8
0
 10
-2.625
 20
1.125
 11
-2.625
 21
-1.125
  0
LINE
  8
0
 10
-2.625
 20
-1.125
 11
-2.62302
 21
-1.15633
  0
LINE
  8
0
 10
-2.62302
 20
-1.15633
 11
-2.61714
 21
-1.18716
  0
LINE
  8
0
 10
-2.61714
 20
-1.18716
 11
-2.60744
 21
-1.21703
  0
LINE
  8
0
 10
-2.60744
 20
-1.21703
 11
-2.59407
 21
-1.24544
  0
LINE
  8
0
 10
-2.59407
 20
-1.24544
 11
-2.57724
 21
-1.27194
  0
LINE
  8
0
 10
-2.57724
 20
-1.27194
 11
-2.55724
 21
-1.29613
  0
LINE
  8
0
 10
-2.55724
 20
-1.29613
 11
-2.53435
 21
-1.31763
  0
LINE
  8
0
 10
-2.53435
 20
-1.31763
 11
-2.50894
 21
-1.33607
  0
LINE
  8
0
 10
-2.50894
 20
-1.33607
 11
-2.48143
 21
-1.3512
  0
LINE
  8
0
 10
-2.48143
 20
-1.3512
 11
-2.45224
 21
-1.36276
  0
LINE
  8
0
 10
-2.45224
 20
-1.36276
 11
-2.42184
 21
-1.37056
  0
LINE
  8
0
 10
-2.42184
 20
-1.37056
 11
-2.39069
 21
-1.3745
  0
LINE
  8
0
 10
1.12999
 20
1.04999
 11
1.12999
 21
1.17499
  0
LINE
  8
0
 10
1.12999
 20
1.17499
 11
1.62999
 21
1.17499
  0
LINE
  8
0
 10
1.62999
 20
1.17499
 11
1.62999
 21
1.04999
  0
LINE
  8
0
 10
1.62999
 20
1.04999
 11
1.12999
 21
1.04999
  0
LINE
  8
0
 10
-0.25
 20
1.04999
 11
-0.25
 21
1.17499
  0
LINE
  8
0
 10
-0.25
 20
1.17499
 11
0.25
 21
1.17499
  0
LINE
  8
0
 10
0.25
 20
1.17499
 11
0.25
 21
1.04999
  0
LINE
  8
0
 10
0.25
 20
1.04999
 11
-0.25
 21
1.04999
  0
LINE
  8
0
 10
-1.62999
 20
1.04999
 11
-1.62999
 21
1.17499
  0
LINE
  8
0
 10
-1.62999
 20
1.17499
 11
-1.12999
 21
1.17499
  0
LINE
  8
0
 10
-1.12999
 20
1.17499
 11
-1.12999
 21
1.04999
  0
LINE
  8
0
 10
-1.12999
 20
1.04999
 11
-1.62999
 21
1.04999
  0
LINE
  8
0
 10
2.31087
 20
0.993027
 11
2.28912
 21
0.993027
  0
LINE
  8
0
 10
2.28912
 20
0.993027
 11
2.26892
 21
1.00102
  0
LINE
  8
0
 10
2.26892
 20
1.00102
 11
2.25307
 21
1.0159
  0
LINE
  8
0
 10
2.25307
 20
1.0159
 11
2.24382
 21
1.03557
  0
LINE
  8
0
 10
2.24382
 20
1.03557
 11
2.24245
 21
1.05727
  0
LINE
  8
0
 10
2.24245
 20
1.05727
 11
2.24916
 21
1.07793
  0
LINE
  8
0
 10
2.24916
 20
1.07793
 11
2.26302
 21
1.09468
  0
LINE
  8
0
 10
2.26302
 20
1.09468
 11
2.28207
 21
1.10515
  0
LINE
  8
0
 10
2.28207
 20
1.10515
 11
2.30363
 21
1.10788
  0
LINE
  8
0
 10
2.30363
 20
1.10788
 11
2.32469
 21
1.10248
  0
LINE
  8
0
 10
2.32469
 20
1.10248
 11
2.34227
 21
1.08969
  0
LINE
  8
0
 10
2.34227
 20
1.08969
 11
2.35391
 21
1.07135
  0
LINE
  8
0
 10
2.35391
 20
1.07135
 11
2.35799
 21
1.04999
  0
LINE
  8
0
 10
2.35799
 20
1.04999
 11
2.35391
 21
1.02864
  0
LINE
  8
0
 10
2.35391
 20
1.02864
 11
2.34227
 21
1.01028
  0
LINE
  8
0
 10
2.34227
 20
1.01028
 11
2.32469
 21
0.997513
  0
LINE
  8
0
 10
2.32469
 20
0.997513
 11
2.31087
 21
0.993027
  0
LINE
  8
0
 10
-2.28912
 20
0.993027
 11
-2.31087
 21
0.993027
  0
LINE
  8
0
 10
-2.31087
 20
0.993027
 11
-2.33107
 21
1.00102
  0
LINE
  8
0
 10
-2.33107
 20
1.00102
 11
-2.34691
 21
1.0159
  0
LINE
  8
0
 10
-2.34691
 20
1.0159
 11
-2.35617
 21
1.03557
  0
LINE
  8
0
 10
-2.35617
 20
1.03557
 11
-2.35753
 21
1.05727
  0
LINE
  8
0
 10
-2.35753
 20
1.05727
 11
-2.35081
 21
1.07793
  0
LINE
  8
0
 10
-2.35081
 20
1.07793
 11
-2.33696
 21
1.09468
  0
LINE
  8
0
 10
-2.33696
 20
1.09468
 11
-2.31792
 21
1.10515
  0
LINE
  8
0
 10
-2.31792
 20
1.10515
 11
-2.29636
 21
1.10788
  0
LINE
  8
0
 10
-2.29636
 20
1.10788
 11
-2.2753
 21
1.10248
  0
LINE
  8
0
 10
-2.2753
 20
1.10248
 11
-2.25771
 21
1.08969
  0
LINE
  8
0
 10
-2.25771
 20
1.08969
 11
-2.24606
 21
1.07135
  0
LINE
  8
0
 10
-2.24606
 20
1.07135
 11
-2.24199
 21
1.04999
  0
LINE
  8
0
 10
-2.24199
 20
1.04999
 11
-2.24606
 21
1.02864
  0
LINE
  8
0
 10
-2.24606
 20
1.02864
 11
-2.25771
 21
1.01028
  0
LINE
  8
0
 10
-2.25771
 20
1.01028
 11
-2.2753
 21
0.997513
  0
LINE
  8
0
 10
-2.2753
 20
0.997513
 11
-2.28912
 21
0.993027
  0
LINE
  8
0
 10
2.29999
 20
0.337494
 11
2.29999
 21
0.837494
  0
LINE
  8
0
 10
2.29999
 20
0.837494
 11
2.42499
 21
0.837494
  0
LINE
  8
0
 10
2.42499
 20
0.837494
 11
2.42499
 21
0.337494
  0
LINE
  8
0
 10
2.42499
 20
0.337494
 11
2.29999
 21
0.337494
  0
LINE
  8
0
 10
-2.42499
 20
0.337494
 11
-2.42499
 21
0.837494
  0
LINE
  8
0
 10
-2.42499
 20
0.837494
 11
-2.29999
 21
0.837494
  0
LINE
  8
0
 10
-2.29999
 20
0.837494
 11
-2.29999
 21
0.337494
  0
LINE
  8
0
 10
-2.29999
 20
0.337494
 11
-2.42499
 21
0.337494
  0
LINE
  8
0
 10
2.29999
 20
-0.837494
 11
2.29999
 21
-0.337494
  0
LINE
  8
0
 10
2.29999
 20
-0.337494
 11
2.42499
 21
-0.337494
  0
LINE
  8
0
 10
2.42499
 20
-0.337494
 11
2.42499
 21
-0.837494
  0
LINE
  8
0
 10
2.42499
 20
-0.837494
 11
2.29999
 21
-0.837494
  0
LINE
  8
0
 10
-2.42499
 20
-0.837494
 11
-2.42499
 21
-0.337494
  0
LINE
  8
0
 10
-2.42499
 20
-0.337494
 11
-2.29999
 21
-0.337494
  0
LINE
  8
0
 10
-2.29999
 20
-0.337494
 11
-2.29999
 21
-0.837494
  0
LINE
  8
0
 10
-2.29999
 20
-0.837494
 11
-2.42499
 21
-0.837494
  0
LINE
  8
0
 10
2.31087
 20
-1.10696
 11
2.28912
 21
-1.10696
  0
LINE
  8
0
 10
2.28912
 20
-1.10696
 11
2.26892
 21
-1.09897
  0
LINE
  8
0
 10
2.26892
 20
-1.09897
 11
2.25307
 21
-1.08409
  0
LINE
  8
0
 10
2.25307
 20
-1.08409
 11
2.24382
 21
-1.06442
  0
LINE
  8
0
 10
2.24382
 20
-1.06442
 11
2.24245
 21
-1.04272
  0
LINE
  8
0
 10
2.24245
 20
-1.04272
 11
2.24916
 21
-1.02205
  0
LINE
  8
0
 10
2.24916
 20
-1.02205
 11
2.26302
 21
-1.00531
  0
LINE
  8
0
 10
2.26302
 20
-1.00531
 11
2.28207
 21
-0.994827
  0
LINE
  8
0
 10
2.28207
 20
-0.994827
 11
2.30363
 21
-0.992111
  0
LINE
  8
0
 10
2.30363
 20
-0.992111
 11
2.32469
 21
-0.997513
  0
LINE
  8
0
 10
2.32469
 20
-0.997513
 11
2.34227
 21
-1.01028
  0
LINE
  8
0
 10
2.34227
 20
-1.01028
 11
2.35391
 21
-1.02864
  0
LINE
  8
0
 10
2.35391
 20
-1.02864
 11
2.35799
 21
-1.04999
  0
LINE
  8
0
 10
2.35799
 20
-1.04999
 11
2.35391
 21
-1.07135
  0
LINE
  8
0
 10
2.35391
 20
-1.07135
 11
2.34227
 21
-1.08969
  0
LINE
  8
0
 10
2.34227
 20
-1.08969
 11
2.32469
 21
-1.10248
  0
LINE
  8
0
 10
2.32469
 20
-1.10248
 11
2.31087
 21
-1.10696
  0
LINE
  8
0
 10
-2.28912
 20
-1.10696
 11
-2.31087
 21
-1.10696
  0
LINE
  8
0
 10
-2.31087
 20
-1.10696
 11
-2.33107
 21
-1.09897
  0
LINE
  8
0
 10
-2.33107
 20
-1.09897
 11
-2.34691
 21
-1.08409
  0
LINE
  8
0
 10
-2.34691
 20
-1.08409
 11
-2.35617
 21
-1.06442
  0
LINE
  8
0
 10
-2.35617
 20
-1.06442
 11
-2.35753
 21
-1.04272
  0
LINE
  8
0
 10
-2.35753
 20
-1.04272
 11
-2.35081
 21
-1.02205
  0
LINE
  8
0
 10
-2.35081
 20
-1.02205
 11
-2.33696
 21
-1.00531
  0
LINE
  8
0
 10
-2.33696
 20
-1.00531
 11
-2.31792
 21
-0.994827
  0
LINE
  8
0
 10
-2.31792
 20
-0.994827
 11
-2.29636
 21
-0.992111
  0
LINE
  8
0
 10
-2.29636
 20
-0.992111
 11
-2.2753
 21
-0.997513
  0
LINE
  8
0
 10
-2.2753
 20
-0.997513
 11
-2.25771
 21
-1.01028
  0
LINE
  8
0
 10
-2.25771
 20
-1.01028
 11
-2.24606
 21
-1.02864
  0
LINE
  8
0
 10
-2.24606
 20
-1.02864
 11
-2.24199
 21
-1.04999
  0
LINE
  8
0
 10
-2.24199
 20
-1.04999
 11
-2.24606
 21
-1.07135
  0
LINE
  8
0
 10
-2.24606
 20
-1.07135
 11
-2.25771
 21
-1.08969
  0
LINE
  8
0
 10
-2.25771
 20
-1.08969
 11
-2.2753
 21
-1.10248
  0
LINE
  8
0
 10
-2.2753
 20
-1.10248
 11
-2.28912
 21
-1.10696
  0
LINE
  8
0
 10
1.12999
 20
-1.17499
 11
1.12999
 21
-1.04999
  0
LINE
  8
0
 10
1.12999
 20
-1.04999
 11
1.62999
 21
-1.04999
  0
LINE
  8
0
 10
1.62999
 20
-1.04999
 11
1.62999
 21
-1.17499
  0
LINE
  8
0
 10
1.62999
 20
-1.17499
 11
1.12999
 21
-1.17499
  0
LINE
  8
0
 10
-1.62999
 20
-1.17499
 11
-1.62999
 21
-1.04999
  0
LINE
  8
0
 10
-1.62999
 20
-1.04999
 11
-1.12999
 21
-1.04999
  0
LINE
  8
0
 10
-1.12999
 20
-1.04999
 11
-1.12999
 21
-1.17499
  0
LINE
  8
0
 10
-1.12999
 20
-1.17499
 11
-1.62999
 21
-1.17499
  0
LINE
  8
0
 10
-0.25
 20
-1.17499
 11
-0.25
 21
-1.04999
  0
LINE
  8
0
 10
-0.25
 20
-1.04999
 11
0.25
 21
-1.04999
  0
LINE
  8
0
 10
0.25
 20
-1.04999
 11
0.25
 21
-1.17499
  0
LINE
  8
0
 10
0.25
 20
-1.17499
 11
-0.25
 21
-1.17499
  0
LINE
  8
0
 10
3.72499
 20
-1.04999
 11
4.22499
 21
-1.04999
  0
LINE
  8
0
 10
4.22499
 20
-1.04999
 11
4.22499
 21
-1.17499
  0
LINE
  8
0
 10
4.22499
 20
-1.17499
 11
4.7
 21
-1.17499
  0
LINE
  8
0
 10
4.7
 20
-1.17499
 11
4.7
 21
-0.837494
  0
LINE
  8
0
 10
4.7
 20
-0.837494
 11
4.825
 21
-0.837494
  0
LINE
  8
0
 10
4.825
 20
-0.837494
 11
4.825
 21
-0.337494
  0
LINE
  8
0
 10
4.825
 20
-0.337494
 11
4.7
 21
-0.337494
  0
LINE
  8
0
 10
4.7
 20
-0.337494
 11
4.7
 21
0.337494
  0
LINE
  8
0
 10
4.7
 20
0.337494
 11
4.825
 21
0.337494
  0
LINE
  8
0
 10
4.825
 20
0.337494
 11
4.825
 21
0.837494
  0
LINE
  8
0
 10
4.825
 20
0.837494
 11
4.7
 21
0.837494
  0
LINE
  8
0
 10
4.7
 20
0.837494
 11
4.7
 21
1.17499
  0
LINE
  8
0
 10
4.7
 20
1.17499
 11
4.22499
 21
1.17499
  0
LINE
  8
0
 10
4.22499
 20
1.17499
 11
4.22499
 21
1.04999
  0
LINE
  8
0
 10
4.22499
 20
1.04999
 11
3.72499
 21
1.04999
  0
LINE
  8
0
 10
3.72499
 20
1.04999
 11
3.72499
 21
1.17499
  0
LINE
  8
0
 10
3.72499
 20
1.17499
 11
3.25
 21
1.17499
  0
LINE
  8
0
 10
3.25
 20
1.17499
 11
3.25
 21
0.837494
  0
LINE
  8
0
 10
3.25
 20
0.837494
 11
3.125
 21
0.837494
  0
LINE
  8
0
 10
3.125
 20
0.837494
 11
3.125
 21
0.337494
  0
LINE
  8
0
 10
3.125
 20
0.337494
 11
3.25
 21
0.337494
  0
LINE
  8
0
 10
3.25
 20
0.337494
 11
3.25
 21
-0.337494
  0
LINE
  8
0
 10
3.25
 20
-0.337494
 11
3.125
 21
-0.337494
  0
LINE
  8
0
 10
3.125
 20
-0.337494
 11
3.125
 21
-0.837494
  0
LINE
  8
0
 10
3.125
 20
-0.837494
 11
3.25
 21
-0.837494
  0
LINE
  8
0
 10
3.25
 20
-0.837494
 11
3.25
 21
-1.17499
  0
LINE
  8
0
 10
3.25
 20
-1.17499
 11
3.72499
 21
-1.17499
  0
LINE
  8
0
 10
3.72499
 20
-1.17499
 11
3.72499
 21
-1.04999
  0
LINE
  8
0
 10
-4.22499
 20
-1.04999
 11
-3.72499
 21
-1.04999
  0
LINE
  8
0
 10
-3.72499
 20
-1.04999
 11
-3.72499
 21
-1.17499
  0
LINE
  8
0
 10
-3.72499
 20
-1.17499
 11
-3.25
 21
-1.17499
  0
LINE
  8
0
 10
-3.25
 20
-1.17499
 11
-3.25
 21
-0.837494
  0
LINE
  8
0
 10
-3.25
 20
-0.837494
 11
-3.125
 21
-0.837494
  0
LINE
  8
0
 10
-3.125
 20
-0.837494
 11
-3.125
 21
-0.337494
  0
LINE
  8
0
 10
-3.125
 20
-0.337494
 11
-3.25
 21
-0.337494
  0
LINE
  8
0
 10
-3.25
 20
-0.337494
 11
-3.25
 21
0.337494
  0
LINE
  8
0
 10
-3.25
 20
0.337494
 11
-3.125
 21
0.337494
  0
LINE
  8
0
 10
-3.125
 20
0.337494
 11
-3.125
 21
0.837494
  0
LINE
  8
0
 10
-3.125
 20
0.837494
 11
-3.25
 21
0.837494
  0
LINE
  8
0
 10
-3.25
 20
0.837494
 11
-3.25
 21
1.17499
  0
LINE
  8
0
 10
-3.25
 20
1.17499
 11
-3.72499
 21
1.17499
  0
LINE
  8
0
 10
-3.72499
 20
1.17499
 11
-3.72499
 21
1.04999
  0
LINE
  8
0
 10
-3.72499
 20
1.04999
 11
-4.22499
 21
1.04999
  0
LINE
  8
0
 10
-4.22499
 20
1.04999
 11
-4.22499
 21
1.17499
  0
LINE
  8
0
 10
-4.22499
 20
1.17499
 11
-4.7
 21
1.17499
  0
LINE
  8
0
 10
-4.7
 20
1.17499
 11
-4.7
 21
0.837494
  0
LINE
  8
0
 10
-4.7
 20
0.837494
 11
-4.825
 21
0.837494
  0
LINE
  8
0
 10
-4.825
 20
0.837494
 11
-4.825
 21
0.337494
  0
LINE
  8
0
 10
-4.825
 20
0.337494
 11
-4.7
 21
0.337494
  0
LINE
  8
0
 10
-4.7
 20
0.337494
 11
-4.7
 21
-0.337494
  0
LINE
  8
0
 10
-4.7
 20
-0.337494
 11
-4.825
 21
-0.337494
  0
LINE
  8
0
 10
-4.825
 20
-0.337494
 11
-4.825
 21
-0.837494
  0
LINE
  8
0
 10
-4.825
 20
-0.837494
 11
-4.7
 21
-0.837494
  0
LINE
  8
0
 10
-4.7
 20
-0.837494
 11
-4.7
 21
-1.17499
  0
LINE
  8
0
 10
-4.7
 20
-1.17499
 11
-4.22499
 21
-1.17499
  0
LINE
  8
0
 10
-4.22499
 20
-1.17499
 11
-4.22499
 21
-1.04999
  0
LINE
  8
0
 10
-1.12999
 20
-3.45
 11
-0.25
 21
-3.45
  0
LINE
  8
0
 10
-0.25
 20
-3.45
 11
-0.25
 21
-3.575
  0
LINE
  8
0
 10
-0.25
 20
-3.575
 11
0.25
 21
-3.575
  0
LINE
  8
0
 10
0.25
 20
-3.575
 11
0.25
 21
-3.45
  0
LINE
  8
0
 10
0.25
 20
-3.45
 11
1.12999
 21
-3.45
  0
LINE
  8
0
 10
1.12999
 20
-3.45
 11
1.12999
 21
-3.575
  0
LINE
  8
0
 10
1.12999
 20
-3.575
 11
1.62999
 21
-3.575
  0
LINE
  8
0
 10
1.62999
 20
-3.575
 11
1.62999
 21
-3.45
  0
LINE
  8
0
 10
1.62999
 20
-3.45
 11
2.29999
 21
-3.45
  0
LINE
  8
0
 10
2.29999
 20
-3.45
 11
2.29999
 21
-2.97499
  0
LINE
  8
0
 10
2.29999
 20
-2.97499
 11
2.42499
 21
-2.97499
  0
LINE
  8
0
 10
2.42499
 20
-2.97499
 11
2.42499
 21
-2.47499
  0
LINE
  8
0
 10
2.42499
 20
-2.47499
 11
2.29999
 21
-2.47499
  0
LINE
  8
0
 10
2.29999
 20
-2.47499
 11
2.29999
 21
-2
  0
LINE
  8
0
 10
2.29999
 20
-2
 11
1.62999
 21
-2
  0
LINE
  8
0
 10
1.62999
 20
-2
 11
1.62999
 21
-1.875
  0
LINE
  8
0
 10
1.62999
 20
-1.875
 11
1.12999
 21
-1.875
  0
LINE
  8
0
 10
1.12999
 20
-1.875
 11
1.12999
 21
-2
  0
LINE
  8
0
 10
1.12999
 20
-2
 11
0.25
 21
-2
  0
LINE
  8
0
 10
0.25
 20
-2
 11
0.25
 21
-1.875
  0
LINE
  8
0
 10
0.25
 20
-1.875
 11
-0.25
 21
-1.875
  0
LINE
  8
0
 10
-0.25
 20
-1.875
 11
-0.25
 21
-2
  0
LINE
  8
0
 10
-0.25
 20
-2
 11
-1.12999
 21
-2
  0
LINE
  8
0
 10
-1.12999
 20
-2
 11
-1.12999
 21
-1.875
  0
LINE
  8
0
 10
-1.12999
 20
-1.875
 11
-1.62999
 21
-1.875
  0
LINE
  8
0
 10
-1.62999
 20
-1.875
 11
-1.62999
 21
-2
  0
LINE
  8
0
 10
-1.62999
 20
-2
 11
-2.29999
 21
-2
  0
LINE
  8
0
 10
-2.29999
 20
-2
 11
-2.29999
 21
-2.47499
  0
LINE
  8
0
 10
-2.29999
 20
-2.47499
 11
-2.42499
 21
-2.47499
  0
LINE
  8
0
 10
-2.42499
 20
-2.47499
 11
-2.42499
 21
-2.97499
  0
LINE
  8
0
 10
-2.42499
 20
-2.97499
 11
-2.29999
 21
-2.97499
  0
LINE
  8
0
 10
-2.29999
 20
-2.97499
 11
-2.29999
 21
-3.45
  0
LINE
  8
0
 10
-2.29999
 20
-3.45
 11
-1.62999
 21
-3.45
  0
LINE
  8
0
 10
-1.62999
 20
-3.45
 11
-1.62999
 21
-3.575
  0
LINE
  8
0
 10
-1.62999
 20
-3.575
 11
-1.12999
 21
-3.575
  0
LINE
  8
0
 10
-1.12999
 20
-3.575
 11
-1.12999
 21
-3.45
  0
LINE
  8
0
 10
-2.39069
 20
-6.82449
 11
2.39069
 21
-6.82449
  0
LINE
  8
0
 10
2.39069
 20
-6.82449
 11
2.42184
 21
-6.82056
  0
LINE
  8
0
 10
2.42184
 20
-6.82056
 11
2.45224
 21
-6.81276
  0
LINE
  8
0
 10
2.45224
 20
-6.81276
 11
2.48143
 21
-6.80119
  0
LINE
  8
0
 10
2.48143
 20
-6.80119
 11
2.50894
 21
-6.78607
  0
LINE
  8
0
 10
2.50894
 20
-6.78607
 11
2.53435
 21
-6.76762
  0
LINE
  8
0
 10
2.53435
 20
-6.76762
 11
2.55724
 21
-6.74612
  0
LINE
  8
0
 10
2.55724
 20
-6.74612
 11
2.57724
 21
-6.72194
  0
LINE
  8
0
 10
2.57724
 20
-6.72194
 11
2.59407
 21
-6.69543
  0
LINE
  8
0
 10
2.59407
 20
-6.69543
 11
2.60744
 21
-6.66702
  0
LINE
  8
0
 10
2.60744
 20
-6.66702
 11
2.61714
 21
-6.63716
  0
LINE
  8
0
 10
2.61714
 20
-6.63716
 11
2.62302
 21
-6.60632
  0
LINE
  8
0
 10
2.62302
 20
-6.60632
 11
2.625
 21
-6.575
  0
LINE
  8
0
 10
2.625
 20
-6.575
 11
2.625
 21
-4.325
  0
LINE
  8
0
 10
2.625
 20
-4.325
 11
2.62302
 21
-4.29366
  0
LINE
  8
0
 10
2.62302
 20
-4.29366
 11
2.61714
 21
-4.26282
  0
LINE
  8
0
 10
2.61714
 20
-4.26282
 11
2.60744
 21
-4.23296
  0
LINE
  8
0
 10
2.60744
 20
-4.23296
 11
2.59407
 21
-4.20456
  0
LINE
  8
0
 10
2.59407
 20
-4.20456
 11
2.57724
 21
-4.17804
  0
LINE
  8
0
 10
2.57724
 20
-4.17804
 11
2.55724
 21
-4.15385
  0
LINE
  8
0
 10
2.55724
 20
-4.15385
 11
2.53435
 21
-4.13237
  0
LINE
  8
0
 10
2.53435
 20
-4.13237
 11
2.50894
 21
-4.11391
  0
LINE
  8
0
 10
2.50894
 20
-4.11391
 11
2.48143
 21
-4.09879
  0
LINE
  8
0
 10
2.48143
 20
-4.09879
 11
2.45224
 21
-4.08723
  0
LINE
  8
0
 10
2.45224
 20
-4.08723
 11
2.42184
 21
-4.07942
  0
LINE
  8
0
 10
2.42184
 20
-4.07942
 11
2.375
 21
-4.075
  0
LINE
  8
0
 10
2.375
 20
-4.075
 11
-2.39069
 21
-4.07549
  0
LINE
  8
0
 10
-2.39069
 20
-4.07549
 11
-2.42184
 21
-4.07942
  0
LINE
  8
0
 10
-2.42184
 20
-4.07942
 11
-2.45224
 21
-4.08723
  0
LINE
  8
0
 10
-2.45224
 20
-4.08723
 11
-2.48143
 21
-4.09879
  0
LINE
  8
0
 10
-2.48143
 20
-4.09879
 11
-2.50894
 21
-4.11391
  0
LINE
  8
0
 10
-2.50894
 20
-4.11391
 11
-2.53435
 21
-4.13237
  0
LINE
  8
0
 10
-2.53435
 20
-4.13237
 11
-2.55724
 21
-4.15385
  0
LINE
  8
0
 10
-2.55724
 20
-4.15385
 11
-2.57724
 21
-4.17804
  0
LINE
  8
0
 10
-2.57724
 20
-4.17804
 11
-2.59407
 21
-4.20456
  0
LINE
  8
0
 10
-2.59407
 20
-4.20456
 11
-2.60744
 21
-4.23296
  0
LINE
  8
0
 10
-2.60744
 20
-4.23296
 11
-2.61714
 21
-4.26282
  0
LINE
  8
0
 10
-2.61714
 20
-4.26282
 11
-2.62302
 21
-4.29366
  0
LINE
  8
0
 10
-2.62302
 20
-4.29366
 11
-2.625
 21
-4.325
  0
LINE
  8
0
 10
-2.625
 20
-4.325
 11
-2.625
 21
-6.575
  0
LINE
  8
0
 10
-2.625
 20
-6.575
 11
-2.62302
 21
-6.60632
  0
LINE
  8
0
 10
-2.62302
 20
-6.60632
 11
-2.61714
 21
-6.63716
  0
LINE
  8
0
 10
-2.61714
 20
-6.63716
 11
-2.60744
 21
-6.66702
  0
LINE
  8
0
 10
-2.60744
 20
-6.66702
 11
-2.59407
 21
-6.69543
  0
LINE
  8
0
 10
-2.59407
 20
-6.69543
 11
-2.57724
 21
-6.72194
  0
LINE
  8
0
 10
-2.57724
 20
-6.72194
 11
-2.55724
 21
-6.74612
  0
LINE
  8
0
 10
-2.55724
 20
-6.74612
 11
-2.53435
 21
-6.76762
  0
LINE
  8
0
 10
-2.53435
 20
-6.76762
 11
-2.50894
 21
-6.78607
  0
LINE
  8
0
 10
-2.50894
 20
-6.78607
 11
-2.48143
 21
-6.80119
  0
LINE
  8
0
 10
-2.48143
 20
-6.80119
 11
-2.45224
 21
-6.81276
  0
LINE
  8
0
 10
-2.45224
 20
-6.81276
 11
-2.42184
 21
-6.82056
  0
LINE
  8
0
 10
-2.42184
 20
-6.82056
 11
-2.39069
 21
-6.82449
  0
LINE
  8
0
 10
1.12999
 20
-4.39999
 11
1.12999
 21
-4.27499
  0
LINE
  8
0
 10
1.12999
 20
-4.27499
 11
1.62999
 21
-4.27499
  0
LINE
  8
0
 10
1.62999
 20
-4.27499
 11
1.62999
 21
-4.39999
  0
LINE
  8
0
 10
1.62999
 20
-4.39999
 11
1.12999
 21
-4.39999
  0
LINE
  8
0
 10
-1.62999
 20
-4.39999
 11
-1.62999
 21
-4.27499
  0
LINE
  8
0
 10
-1.62999
 20
-4.27499
 11
-1.12999
 21
-4.27499
  0
LINE
  8
0
 10
-1.12999
 20
-4.27499
 11
-1.12999
 21
-4.39999
  0
LINE
  8
0
 10
-1.12999
 20
-4.39999
 11
-1.62999
 21
-4.39999
  0
LINE
  8
0
 10
-0.25
 20
-4.39999
 11
-0.25
 21
-4.27499
  0
LINE
  8
0
 10
-0.25
 20
-4.27499
 11
0.25
 21
-4.27499
  0
LINE
  8
0
 10
0.25
 20
-4.27499
 11
0.25
 21
-4.39999
  0
LINE
  8
0
 10
0.25
 20
-4.39999
 11
-0.25
 21
-4.39999
  0
LINE
  8
0
 10
-2.28912
 20
-4.45697
 11
-2.31087
 21
-4.45697
  0
LINE
  8
0
 10
-2.31087
 20
-4.45697
 11
-2.33107
 21
-4.44896
  0
LINE
  8
0
 10
-2.33107
 20
-4.44896
 11
-2.34691
 21
-4.43408
  0
LINE
  8
0
 10
-2.34691
 20
-4.43408
 11
-2.35617
 21
-4.41441
  0
LINE
  8
0
 10
-2.35617
 20
-4.41441
 11
-2.35753
 21
-4.39273
  0
LINE
  8
0
 10
-2.35753
 20
-4.39273
 11
-2.35081
 21
-4.37206
  0
LINE
  8
0
 10
-2.35081
 20
-4.37206
 11
-2.33696
 21
-4.3553
  0
LINE
  8
0
 10
-2.33696
 20
-4.3553
 11
-2.31792
 21
-4.34483
  0
LINE
  8
0
 10
-2.31792
 20
-4.34483
 11
-2.29636
 21
-4.3421
  0
LINE
  8
0
 10
-2.29636
 20
-4.3421
 11
-2.2753
 21
-4.34752
  0
LINE
  8
0
 10
-2.2753
 20
-4.34752
 11
-2.25771
 21
-4.36029
  0
LINE
  8
0
 10
-2.25771
 20
-4.36029
 11
-2.24606
 21
-4.37865
  0
LINE
  8
0
 10
-2.24606
 20
-4.37865
 11
-2.24199
 21
-4.39999
  0
LINE
  8
0
 10
-2.24199
 20
-4.39999
 11
-2.24606
 21
-4.42134
  0
LINE
  8
0
 10
-2.24606
 20
-4.42134
 11
-2.25771
 21
-4.4397
  0
LINE
  8
0
 10
-2.25771
 20
-4.4397
 11
-2.2753
 21
-4.45247
  0
LINE
  8
0
 10
-2.2753
 20
-4.45247
 11
-2.28912
 21
-4.45697
  0
LINE
  8
0
 10
2.31087
 20
-4.45697
 11
2.28912
 21
-4.45697
  0
LINE
  8
0
 10
2.28912
 20
-4.45697
 11
2.26892
 21
-4.44896
  0
LINE
  8
0
 10
2.26892
 20
-4.44896
 11
2.25307
 21
-4.43408
  0
LINE
  8
0
 10
2.25307
 20
-4.43408
 11
2.24382
 21
-4.41441
  0
LINE
  8
0
 10
2.24382
 20
-4.41441
 11
2.24245
 21
-4.39273
  0
LINE
  8
0
 10
2.24245
 20
-4.39273
 11
2.24916
 21
-4.37206
  0
LINE
  8
0
 10
2.24916
 20
-4.37206
 11
2.26302
 21
-4.3553
  0
LINE
  8
0
 10
2.26302
 20
-4.3553
 11
2.28207
 21
-4.34483
  0
LINE
  8
0
 10
2.28207
 20
-4.34483
 11
2.30363
 21
-4.3421
  0
LINE
  8
0
 10
2.30363
 20
-4.3421
 11
2.32469
 21
-4.34752
  0
LINE
  8
0
 10
2.32469
 20
-4.34752
 11
2.34227
 21
-4.36029
  0
LINE
  8
0
 10
2.34227
 20
-4.36029
 11
2.35391
 21
-4.37865
  0
LINE
  8
0
 10
2.35391
 20
-4.37865
 11
2.35799
 21
-4.39999
  0
LINE
  8
0
 10
2.35799
 20
-4.39999
 11
2.35391
 21
-4.42134
  0
LINE
  8
0
 10
2.35391
 20
-4.42134
 11
2.34227
 21
-4.4397
  0
LINE
  8
0
 10
2.34227
 20
-4.4397
 11
2.32469
 21
-4.45247
  0
LINE
  8
0
 10
2.32469
 20
-4.45247
 11
2.31087
 21
-4.45697
  0
LINE
  8
0
 10
2.29999
 20
-5.11249
 11
2.29999
 21
-4.61249
  0
LINE
  8
0
 10
2.29999
 20
-4.61249
 11
2.42499
 21
-4.61249
  0
LINE
  8
0
 10
2.42499
 20
-4.61249
 11
2.42499
 21
-5.11249
  0
LINE
  8
0
 10
2.42499
 20
-5.11249
 11
2.29999
 21
-5.11249
  0
LINE
  8
0
 10
-2.42499
 20
-5.11249
 11
-2.42499
 21
-4.61249
  0
LINE
  8
0
 10
-2.42499
 20
-4.61249
 11
-2.29999
 21
-4.61249
  0
LINE
  8
0
 10
-2.29999
 20
-4.61249
 11
-2.29999
 21
-5.11249
  0
LINE
  8
0
 10
-2.29999
 20
-5.11249
 11
-2.42499
 21
-5.11249
  0
LINE
  8
0
 10
2.29999
 20
-6.28749
 11
2.29999
 21
-5.78749
  0
LINE
  8
0
 10
2.29999
 20
-5.78749
 11
2.42499
 21
-5.78749
  0
LINE
  8
0
 10
2.42499
 20
-5.78749
 11
2.42499
 21
-6.28749
  0
LINE
  8
0
 10
2.42499
 20
-6.28749
 11
2.29999
 21
-6.28749
  0
LINE
  8
0
 10
-2.42499
 20
-6.28749
 11
-2.42499
 21
-5.78749
  0
LINE
  8
0
 10
-2.42499
 20
-5.78749
 11
-2.29999
 21
-5.78749
  0
LINE
  8
0
 10
-2.29999
 20
-5.78749
 11
-2.29999
 21
-6.28749
  0
LINE
  8
0
 10
-2.29999
 20
-6.28749
 11
-2.42499
 21
-6.28749
  0
LINE
  8
0
 10
-2.28912
 20
-6.55696
 11
-2.31087
 21
-6.55696
  0
LINE
  8
0
 10
-2.31087
 20
-6.55696
 11
-2.33107
 21
-6.54897
  0
LINE
  8
0
 10
-2.33107
 20
-6.54897
 11
-2.34691
 21
-6.53409
  0
LINE
  8
0
 10
-2.34691
 20
-6.53409
 11
-2.35617
 21
-6.51442
  0
LINE
  8
0
 10
-2.35617
 20
-6.51442
 11
-2.35753
 21
-6.49272
  0
LINE
  8
0
 10
-2.35753
 20
-6.49272
 11
-2.35081
 21
-6.47205
  0
LINE
  8
0
 10
-2.35081
 20
-6.47205
 11
-2.33696
 21
-6.45531
  0
LINE
  8
0
 10
-2.33696
 20
-6.45531
 11
-2.31792
 21
-6.44482
  0
LINE
  8
0
 10
-2.31792
 20
-6.44482
 11
-2.29636
 21
-6.44211
  0
LINE
  8
0
 10
-2.29636
 20
-6.44211
 11
-2.2753
 21
-6.44751
  0
LINE
  8
0
 10
-2.2753
 20
-6.44751
 11
-2.25771
 21
-6.46028
  0
LINE
  8
0
 10
-2.25771
 20
-6.46028
 11
-2.24606
 21
-6.47864
  0
LINE
  8
0
 10
-2.24606
 20
-6.47864
 11
-2.24199
 21
-6.49998
  0
LINE
  8
0
 10
-2.24199
 20
-6.49998
 11
-2.24606
 21
-6.52135
  0
LINE
  8
0
 10
-2.24606
 20
-6.52135
 11
-2.25771
 21
-6.5397
  0
LINE
  8
0
 10
-2.25771
 20
-6.5397
 11
-2.2753
 21
-6.55247
  0
LINE
  8
0
 10
-2.2753
 20
-6.55247
 11
-2.28912
 21
-6.55696
  0
LINE
  8
0
 10
2.31087
 20
-6.55696
 11
2.28912
 21
-6.55696
  0
LINE
  8
0
 10
2.28912
 20
-6.55696
 11
2.26892
 21
-6.54897
  0
LINE
  8
0
 10
2.26892
 20
-6.54897
 11
2.25307
 21
-6.53409
  0
LINE
  8
0
 10
2.25307
 20
-6.53409
 11
2.24382
 21
-6.51442
  0
LINE
  8
0
 10
2.24382
 20
-6.51442
 11
2.24245
 21
-6.49272
  0
LINE
  8
0
 10
2.24245
 20
-6.49272
 11
2.24916
 21
-6.47205
  0
LINE
  8
0
 10
2.24916
 20
-6.47205
 11
2.26302
 21
-6.45531
  0
LINE
  8
0
 10
2.26302
 20
-6.45531
 11
2.28207
 21
-6.44482
  0
LINE
  8
0
 10
2.28207
 20
-6.44482
 11
2.30363
 21
-6.44211
  0
LINE
  8
0
 10
2.30363
 20
-6.44211
 11
2.32469
 21
-6.44751
  0
LINE
  8
0
 10
2.32469
 20
-6.44751
 11
2.34227
 21
-6.46028
  0
LINE
  8
0
 10
2.34227
 20
-6.46028
 11
2.35391
 21
-6.47864
  0
LINE
  8
0
 10
2.35391
 20
-6.47864
 11
2.35799
 21
-6.49998
  0
LINE
  8
0
 10
2.35799
 20
-6.49998
 11
2.35391
 21
-6.52135
  0
LINE
  8
0
 10
2.35391
 20
-6.52135
 11
2.34227
 21
-6.5397
  0
LINE
  8
0
 10
2.34227
 20
-6.5397
 11
2.32469
 21
-6.55247
  0
LINE
  8
0
 10
2.32469
 20
-6.55247
 11
2.31087
 21
-6.55696
  0
LINE
  8
0
 10
-1.62999
 20
-6.62498
 11
-1.62999
 21
-6.49998
  0
LINE
  8
0
 10
-1.62999
 20
-6.49998
 11
-1.12999
 21
-6.49998
  0
LINE
  8
0
 10
-1.12999
 20
-6.49998
 11
-1.12999
 21
-6.62498
  0
LINE
  8
0
 10
-1.12999
 20
-6.62498
 11
-1.62999
 21
-6.62498
  0
LINE
  8
0
 10
-0.25
 20
-6.62498
 11
-0.25
 21
-6.49998
  0
LINE
  8
0
 10
-0.25
 20
-6.49998
 11
0.25
 21
-6.49998
  0
LINE
  8
0
 10
0.25
 20
-6.49998
 11
0.25
 21
-6.62498
  0
LINE
  8
0
 10
0.25
 20
-6.62498
 11
-0.25
 21
-6.62498
  0
LINE
  8
0
 10
1.12999
 20
-6.62498
 11
1.12999
 21
-6.49998
  0
LINE
  8
0
 10
1.12999
 20
-6.49998
 11
1.62999
 21
-6.49998
  0
LINE
  8
0
 10
1.62999
 20
-6.49998
 11
1.62999
 21
-6.62498
  0
LINE
  8
0
 10
1.62999
 20
-6.62498
 11
1.12999
 21
-6.62498
  0
ENDSEC
  0
SECTION
  2
OBJECTS
  0
DICTIONARY
  0
ENDSEC
  0
EOF
